<?xml version="1.0" encoding="UTF-8" standalone="no"?>
<!DOCTYPE svg PUBLIC "-//W3C//DTD SVG 1.1//EN"
 "http://www.w3.org/Graphics/SVG/1.1/DTD/svg11.dtd">
<!-- Generated by graphviz version 2.49.3 (0)
 -->
<!-- Pages: 1 -->
<svg width="407pt" height="584pt"
 viewBox="0.00 0.00 406.98 584.00" xmlns="http://www.w3.org/2000/svg" xmlns:xlink="http://www.w3.org/1999/xlink">
<g id="graph0" class="graph" transform="scale(1 1) rotate(0) translate(4 580)">
<polygon fill="white" stroke="transparent" points="-4,4 -4,-580 402.98,-580 402.98,4 -4,4"/>
<!-- src -->
<g id="node1" class="node">
<title>src</title>
<ellipse fill="none" stroke="black" cx="27" cy="-315" rx="27" ry="18"/>
<text text-anchor="middle" x="27" y="-311.3" font-family="Times,serif" font-size="14.00">src</text>
</g>
<!-- parsers -->
<g id="node2" class="node">
<title>parsers</title>
<ellipse fill="none" stroke="black" cx="137.45" cy="-477" rx="36" ry="18"/>
<text text-anchor="middle" x="137.45" y="-473.3" font-family="Times,serif" font-size="14.00">parsers</text>
</g>
<!-- src&#45;&#45;parsers -->
<g id="edge1" class="edge">
<title>src&#45;&#45;parsers</title>
<path fill="none" stroke="black" d="M39,-331.42C59.67,-362.31 104.15,-428.76 125.1,-460.05"/>
</g>
<!-- syntaxtree -->
<g id="node3" class="node">
<title>syntaxtree</title>
<ellipse fill="none" stroke="black" cx="137.45" cy="-315" rx="46.59" ry="18"/>
<text text-anchor="middle" x="137.45" y="-311.3" font-family="Times,serif" font-size="14.00">syntaxtree</text>
</g>
<!-- src&#45;&#45;syntaxtree -->
<g id="edge2" class="edge">
<title>src&#45;&#45;syntaxtree</title>
<path fill="none" stroke="black" d="M54.25,-315C65.16,-315 78.15,-315 90.54,-315"/>
</g>
<!-- generators -->
<g id="node4" class="node">
<title>generators</title>
<ellipse fill="none" stroke="black" cx="137.45" cy="-126" rx="47.39" ry="18"/>
<text text-anchor="middle" x="137.45" y="-122.3" font-family="Times,serif" font-size="14.00">generators</text>
</g>
<!-- src&#45;&#45;generators -->
<g id="edge3" class="edge">
<title>src&#45;&#45;generators</title>
<path fill="none" stroke="black" d="M37.62,-298.23C58.05,-262.63 105.56,-179.83 126.37,-143.56"/>
</g>
<!-- qt_xml_parser.py -->
<g id="node5" class="node">
<title>qt_xml_parser.py</title>
<ellipse fill="none" stroke="black" cx="309.93" cy="-558" rx="72.59" ry="18"/>
<text text-anchor="middle" x="309.93" y="-554.3" font-family="Times,serif" font-size="14.00">qt_xml_parser.py</text>
</g>
<!-- parsers&#45;&#45;qt_xml_parser.py -->
<g id="edge4" class="edge">
<title>parsers&#45;&#45;qt_xml_parser.py</title>
<path fill="none" stroke="black" d="M157.85,-491.98C173.99,-503.88 197.97,-520.24 220.89,-531 232.62,-536.5 245.73,-541.22 258.19,-545.11"/>
</g>
<!-- qt_qml_parser.py -->
<g id="node6" class="node">
<title>qt_qml_parser.py</title>
<ellipse fill="none" stroke="black" cx="309.93" cy="-504" rx="72.59" ry="18"/>
<text text-anchor="middle" x="309.93" y="-500.3" font-family="Times,serif" font-size="14.00">qt_qml_parser.py</text>
</g>
<!-- parsers&#45;&#45;qt_qml_parser.py -->
<g id="edge5" class="edge">
<title>parsers&#45;&#45;qt_qml_parser.py</title>
<path fill="none" stroke="black" d="M171.72,-482.27C193.43,-485.71 222.41,-490.3 248.14,-494.37"/>
</g>
<!-- gtk_xml_parser.py -->
<g id="node7" class="node">
<title>gtk_xml_parser.py</title>
<ellipse fill="none" stroke="black" cx="309.93" cy="-450" rx="77.19" ry="18"/>
<text text-anchor="middle" x="309.93" y="-446.3" font-family="Times,serif" font-size="14.00">gtk_xml_parser.py</text>
</g>
<!-- parsers&#45;&#45;gtk_xml_parser.py -->
<g id="edge6" class="edge">
<title>parsers&#45;&#45;gtk_xml_parser.py</title>
<path fill="none" stroke="black" d="M171.72,-471.73C192.65,-468.42 220.34,-464.03 245.37,-460.07"/>
</g>
<!-- AstBase.py -->
<g id="node8" class="node">
<title>AstBase.py</title>
<ellipse fill="none" stroke="black" cx="309.93" cy="-396" rx="51.19" ry="18"/>
<text text-anchor="middle" x="309.93" y="-392.3" font-family="Times,serif" font-size="14.00">AstBase.py</text>
</g>
<!-- syntaxtree&#45;&#45;AstBase.py -->
<g id="edge7" class="edge">
<title>syntaxtree&#45;&#45;AstBase.py</title>
<path fill="none" stroke="black" d="M159.17,-330.95C175.29,-342.76 198.59,-358.53 220.89,-369 235.51,-375.86 252.3,-381.51 267.27,-385.84"/>
</g>
<!-- PushButton.py -->
<g id="node9" class="node">
<title>PushButton.py</title>
<ellipse fill="none" stroke="black" cx="309.93" cy="-342" rx="63.09" ry="18"/>
<text text-anchor="middle" x="309.93" y="-338.3" font-family="Times,serif" font-size="14.00">PushButton.py</text>
</g>
<!-- syntaxtree&#45;&#45;PushButton.py -->
<g id="edge8" class="edge">
<title>syntaxtree&#45;&#45;PushButton.py</title>
<path fill="none" stroke="black" d="M181.03,-321.74C203.22,-325.26 230.61,-329.6 254.34,-333.35"/>
</g>
<!-- TextInput.py -->
<g id="node10" class="node">
<title>TextInput.py</title>
<ellipse fill="none" stroke="black" cx="309.93" cy="-288" rx="55.79" ry="18"/>
<text text-anchor="middle" x="309.93" y="-284.3" font-family="Times,serif" font-size="14.00">TextInput.py</text>
</g>
<!-- syntaxtree&#45;&#45;TextInput.py -->
<g id="edge9" class="edge">
<title>syntaxtree&#45;&#45;TextInput.py</title>
<path fill="none" stroke="black" d="M181.03,-308.26C204.8,-304.49 234.53,-299.78 259.34,-295.85"/>
</g>
<!-- Window.py -->
<g id="node11" class="node">
<title>Window.py</title>
<ellipse fill="none" stroke="black" cx="309.93" cy="-234" rx="51.99" ry="18"/>
<text text-anchor="middle" x="309.93" y="-230.3" font-family="Times,serif" font-size="14.00">Window.py</text>
</g>
<!-- syntaxtree&#45;&#45;Window.py -->
<g id="edge10" class="edge">
<title>syntaxtree&#45;&#45;Window.py</title>
<path fill="none" stroke="black" d="M159.17,-299.05C175.29,-287.24 198.59,-271.47 220.89,-261 235.37,-254.21 251.97,-248.6 266.82,-244.29"/>
</g>
<!-- svg_generator.py -->
<g id="node12" class="node">
<title>svg_generator.py</title>
<ellipse fill="none" stroke="black" cx="309.93" cy="-180" rx="71.49" ry="18"/>
<text text-anchor="middle" x="309.93" y="-176.3" font-family="Times,serif" font-size="14.00">svg_generator.py</text>
</g>
<!-- generators&#45;&#45;svg_generator.py -->
<g id="edge11" class="edge">
<title>generators&#45;&#45;svg_generator.py</title>
<path fill="none" stroke="black" d="M173.7,-137.71C188.29,-142.51 205.39,-148.08 220.89,-153 234.61,-157.35 249.56,-161.98 263.19,-166.15"/>
</g>
<!-- qt_xml_generator.py -->
<g id="node13" class="node">
<title>qt_xml_generator.py</title>
<ellipse fill="none" stroke="black" cx="309.93" cy="-126" rx="84.49" ry="18"/>
<text text-anchor="middle" x="309.93" y="-122.3" font-family="Times,serif" font-size="14.00">qt_xml_generator.py</text>
</g>
<!-- generators&#45;&#45;qt_xml_generator.py -->
<g id="edge12" class="edge">
<title>generators&#45;&#45;qt_xml_generator.py</title>
<path fill="none" stroke="black" d="M185.03,-126C197.55,-126 211.49,-126 225.36,-126"/>
</g>
<!-- qt_qml_generator.py -->
<g id="node14" class="node">
<title>qt_qml_generator.py</title>
<ellipse fill="none" stroke="black" cx="309.93" cy="-72" rx="84.49" ry="18"/>
<text text-anchor="middle" x="309.93" y="-68.3" font-family="Times,serif" font-size="14.00">qt_qml_generator.py</text>
</g>
<!-- generators&#45;&#45;qt_qml_generator.py -->
<g id="edge13" class="edge">
<title>generators&#45;&#45;qt_qml_generator.py</title>
<path fill="none" stroke="black" d="M173.7,-114.29C188.29,-109.49 205.39,-103.92 220.89,-99 233.69,-94.94 247.57,-90.64 260.44,-86.69"/>
</g>
<!-- gtk_xml_generator.py -->
<g id="node15" class="node">
<title>gtk_xml_generator.py</title>
<ellipse fill="none" stroke="black" cx="309.93" cy="-18" rx="89.08" ry="18"/>
<text text-anchor="middle" x="309.93" y="-14.3" font-family="Times,serif" font-size="14.00">gtk_xml_generator.py</text>
</g>
<!-- generators&#45;&#45;gtk_xml_generator.py -->
<g id="edge14" class="edge">
<title>generators&#45;&#45;gtk_xml_generator.py</title>
<path fill="none" stroke="black" d="M151.78,-108.66C166.73,-90.34 192.62,-61.84 220.89,-45 229.96,-39.6 240.2,-35.19 250.41,-31.62"/>
</g>
</g>
</svg>
