<?xml version="1.0" encoding="UTF-8" standalone="no"?>
<!DOCTYPE svg PUBLIC "-//W3C//DTD SVG 1.1//EN"
 "http://www.w3.org/Graphics/SVG/1.1/DTD/svg11.dtd">
<!-- Generated by graphviz version 2.49.3 (0)
 -->
<!-- Pages: 1 -->
<svg width="320pt" height="116pt"
 viewBox="0.00 0.00 319.94 116.00" xmlns="http://www.w3.org/2000/svg" xmlns:xlink="http://www.w3.org/1999/xlink">
<g id="graph0" class="graph" transform="scale(1 1) rotate(0) translate(4 112)">
<polygon fill="white" stroke="transparent" points="-4,4 -4,-112 315.94,-112 315.94,4 -4,4"/>
<!-- AstBase -->
<g id="node1" class="node">
<title>AstBase</title>
<ellipse fill="none" stroke="black" cx="167" cy="-90" rx="40.09" ry="18"/>
<text text-anchor="middle" x="167" y="-86.3" font-family="Times,serif" font-size="14.00">AstBase</text>
</g>
<!-- PushButton -->
<g id="node2" class="node">
<title>PushButton</title>
<ellipse fill="none" stroke="black" cx="52" cy="-18" rx="51.99" ry="18"/>
<text text-anchor="middle" x="52" y="-14.3" font-family="Times,serif" font-size="14.00">PushButton</text>
</g>
<!-- AstBase&#45;&gt;PushButton -->
<g id="edge1" class="edge">
<title>AstBase&#45;&gt;PushButton</title>
<path fill="none" stroke="black" d="M144,-75C127.14,-64.74 103.99,-50.65 85.14,-39.17"/>
<polygon fill="black" stroke="black" points="86.9,-36.15 76.54,-33.94 83.26,-42.13 86.9,-36.15"/>
</g>
<!-- TextInput -->
<g id="node3" class="node">
<title>TextInput</title>
<ellipse fill="none" stroke="black" cx="167" cy="-18" rx="44.69" ry="18"/>
<text text-anchor="middle" x="167" y="-14.3" font-family="Times,serif" font-size="14.00">TextInput</text>
</g>
<!-- AstBase&#45;&gt;TextInput -->
<g id="edge2" class="edge">
<title>AstBase&#45;&gt;TextInput</title>
<path fill="none" stroke="black" d="M167,-71.7C167,-63.98 167,-54.71 167,-46.11"/>
<polygon fill="black" stroke="black" points="170.5,-46.1 167,-36.1 163.5,-46.1 170.5,-46.1"/>
</g>
<!-- Window -->
<g id="node4" class="node">
<title>Window</title>
<ellipse fill="none" stroke="black" cx="271" cy="-18" rx="40.89" ry="18"/>
<text text-anchor="middle" x="271" y="-14.3" font-family="Times,serif" font-size="14.00">Window</text>
</g>
<!-- AstBase&#45;&gt;Window -->
<g id="edge3" class="edge">
<title>AstBase&#45;&gt;Window</title>
<path fill="none" stroke="black" d="M188.29,-74.67C203.47,-64.45 224.1,-50.57 240.95,-39.22"/>
<polygon fill="black" stroke="black" points="243.03,-42.04 249.37,-33.56 239.12,-36.24 243.03,-42.04"/>
</g>
</g>
</svg>
